<svg width="27.004089" height="13.321899" viewBox="0 0 27.0041 13.3219" fill="none" xmlns="http://www.w3.org/2000/svg" xmlns:xlink="http://www.w3.org/1999/xlink">
	<desc>
			Created with Pixso.
	</desc>
	<defs/>
	<path id="Line 7" d="M1.00409 5.66095L26.0041 5.66095L26.0041 7.66095L1.00409 7.66095L1.00409 5.66095ZM2.41827 6.66095L7.36804 11.6107C7.76404 12.0067 7.76404 12.6289 7.36804 13.0249C6.97205 13.4209 6.34979 13.4209 5.95386 13.0249L0.296997 7.36804C-0.098999 6.97208 -0.098999 6.34982 0.296997 5.95386L5.95386 0.296997C6.34979 -0.098999 6.97205 -0.098999 7.36804 0.296997C7.76404 0.692963 7.76404 1.31522 7.36804 1.71121L2.41827 6.66095ZM25.9841 5.68094L26.0041 5.66095C26.5641 5.66095 27.0041 6.10095 27.0041 6.66095C27.0041 7.22095 26.5641 7.66095 26.0041 7.66095L25.9841 7.64096L25.9841 5.68094Z" fill="#FFFFFF" fill-opacity="1.000000" fill-rule="evenodd"/>
</svg>
