<svg width="27.004028" height="13.321899" viewBox="0 0 27.004 13.3219" fill="none" xmlns="http://www.w3.org/2000/svg" xmlns:xlink="http://www.w3.org/1999/xlink">
	<desc>
			Created with Pixso.
	</desc>
	<defs/>
	<path id="Line 7" d="M24.5858 6.66095L19.636 11.6107C19.2401 12.0067 19.2401 12.6289 19.636 13.0249C20.032 13.4209 20.6543 13.4209 21.0503 13.0249L26.7072 7.36804C27.103 6.97208 27.103 6.34982 26.7072 5.95386L21.0503 0.296997C20.6543 -0.098999 20.032 -0.098999 19.636 0.296997C19.2401 0.692963 19.2401 1.31522 19.636 1.71121L24.5858 6.66095ZM1.02002 5.68094L1 5.66095C0.439941 5.66095 0 6.10095 0 6.66095C0 7.22095 0.439941 7.66095 1 7.66095L1.02002 7.64096L1.02002 5.68094Z" fill="#FFFFFF" fill-opacity="1.000000" fill-rule="nonzero"/>
	<path id="Line 7" d="M26 5.66095L1 5.66095L1 7.66095L26 7.66095L26 5.66095ZM24.5858 6.66095L19.636 11.6107C19.2401 12.0067 19.2401 12.6289 19.636 13.0249C20.032 13.4209 20.6543 13.4209 21.0503 13.0249L26.7072 7.36804C27.103 6.97208 27.103 6.34982 26.7072 5.95386L21.0503 0.296997C20.6543 -0.098999 20.032 -0.098999 19.636 0.296997C19.2401 0.692963 19.2401 1.31522 19.636 1.71121L24.5858 6.66095ZM1.02002 5.68094L1 5.66095C0.439941 5.66095 0 6.10095 0 6.66095C0 7.22095 0.439941 7.66095 1 7.66095L1.02002 7.64096L1.02002 5.68094Z" fill="#FFFFFF" fill-opacity="1.000000" fill-rule="evenodd"/>
</svg>
