<svg width="46.000000" height="31.203857" viewBox="0 0 46 31.2039" fill="none" xmlns="http://www.w3.org/2000/svg" xmlns:xlink="http://www.w3.org/1999/xlink">
	<desc>
			Created with Pixso.
	</desc>
	<defs/>
	<path d="M45.9081 15.1504C41.9937 5.94702 33.0015 0 23 0C12.9985 0 4.00647 5.94678 0.0919189 15.1504C-0.0306396 15.4385 -0.0306396 15.7639 0.0919189 16.0518C4.00623 25.2563 12.9983 31.2039 23 31.2039C33.002 31.2039 41.9939 25.2563 45.9081 16.0518C46.0306 15.7639 46.0306 15.4385 45.9081 15.1504ZM23 28.9009C14.088 28.9009 6.05933 23.6968 2.40857 15.6013C6.05945 7.50659 14.0883 2.30322 23 2.30322C31.9119 2.30322 39.9407 7.50659 43.5914 15.6011C39.9407 23.6965 31.912 28.9009 23 28.9009Z" fill="#FFFFFF" fill-opacity="1.000000" fill-rule="nonzero"/>
	<path d="M23 6.78149C18.1364 6.78149 14.1797 10.7383 14.1797 15.6018C14.1797 20.4653 18.1365 24.4221 23 24.4221C27.8635 24.4221 31.8203 20.4653 31.8203 15.6018C31.8203 10.7383 27.8635 6.78149 23 6.78149ZM23 22.1191C19.4065 22.1191 16.4828 19.1956 16.4828 15.6021C16.4828 12.0085 19.4065 9.08472 23 9.08472C26.5936 9.08472 29.5173 12.0085 29.5173 15.6021C29.5173 19.1956 26.5936 22.1191 23 22.1191Z" fill="#FFFFFF" fill-opacity="1.000000" fill-rule="nonzero"/>
	<path d="M23.0001 10.9189C20.4181 10.9189 18.3171 13.0198 18.3171 15.6018C18.3171 16.2378 18.8325 16.7534 19.4686 16.7534C20.1047 16.7534 20.6202 16.2378 20.6202 15.6018C20.6202 14.2896 21.6877 13.2219 23.0001 13.2219C23.6361 13.2219 24.1516 12.7063 24.1516 12.0706C24.1516 11.4343 23.636 10.9189 23.0001 10.9189Z" fill="#FFFFFF" fill-opacity="1.000000" fill-rule="nonzero"/>
</svg>
