<svg width="22.021240" height="22.018127" viewBox="0 0 22.0212 22.0181" fill="none" xmlns="http://www.w3.org/2000/svg" xmlns:xlink="http://www.w3.org/1999/xlink">
	<desc>
			Created with Pixso.
	</desc>
	<defs/>
	<path id="Vector" d="M13.5956 11.0075L21.479 3.1425C21.8242 2.79728 22.0182 2.32906 22.0182 1.84084C22.0182 1.35262 21.8242 0.884392 21.479 0.539169C21.1338 0.193947 20.6655 0 20.1772 0C19.6891 0 19.2208 0.193947 18.8756 0.539169L11.0106 8.4225L3.14563 0.539169C2.80042 0.193947 2.33215 0 1.84399 0C1.35571 0 0.887573 0.193947 0.542236 0.539169C0.197021 0.884392 0.00317383 1.35262 0.00317383 1.84084C0.00317383 2.32906 0.197021 2.79728 0.542236 3.1425L8.42566 11.0075L0.542236 18.8725C0.370483 19.0429 0.234131 19.2457 0.140991 19.4691C0.0479736 19.6925 0 19.9321 0 20.1742C0 20.4162 0.0479736 20.6558 0.140991 20.8792C0.234131 21.1026 0.370483 21.3054 0.542236 21.4758C0.712769 21.6477 0.915527 21.7841 1.13892 21.8771C1.3623 21.9702 1.60193 22.0181 1.84399 22.0181C2.08594 22.0181 2.32556 21.9702 2.54907 21.8771C2.77246 21.7841 2.97522 21.6477 3.14563 21.4758L11.0106 13.5925L18.8756 21.4758C19.046 21.6477 19.2488 21.7841 19.4723 21.8771C19.6957 21.9702 19.9353 22.0181 20.1772 22.0181C20.4193 22.0181 20.6589 21.9702 20.8823 21.8771C21.1057 21.7841 21.3085 21.6477 21.479 21.4758C21.6508 21.3054 21.7872 21.1026 21.8802 20.8792C21.9734 20.6558 22.0212 20.4162 22.0212 20.1742C22.0212 19.9321 21.9734 19.6925 21.8802 19.4691C21.7872 19.2457 21.6508 19.0429 21.479 18.8725L13.5956 11.0075Z" fill="#FFFFFF" fill-opacity="1.000000" fill-rule="nonzero"/>
</svg>
